<svg id="Layer_2" height="16" width="20" xmlns="http://www.w3.org/2000/svg" viewBox="0 0 95.4 86.45"><defs><style>.cls-1{stroke-width:0px;}</style></defs><g id="Layer_1-2"><path class="cls-1" d="m58.14,36.92c12.4,16.38,24.52,32.38,37.26,49.21-9.99,0-19.06.11-28.12-.13-1.27-.03-2.73-1.65-3.68-2.86-6.76-8.64-13.42-17.37-20.45-26.53-6.8,7.73-13.72,14.92-19.81,22.75-4.08,5.24-8.5,8-15.16,6.83-1.44-.25-2.96-.04-5.68-.04,11.61-13.26,22.58-25.81,33.74-38.55C24.29,32,12.49,16.57,0,.26c10.24,0,19.61-.11,28.97.13,1.24.03,2.67,1.71,3.62,2.93,6.2,8.01,12.3,16.1,18.73,24.56,6.67-7.61,13.25-14.67,19.28-22.17,3.32-4.14,6.85-6.39,12.23-5.54,2.05.32,4.19.05,7.44.05-11.1,12.67-21.46,24.51-32.13,36.69ZM17.62,9.03c1.33,1.8,2.37,3.26,3.46,4.69,15.27,19.94,30.68,39.78,45.73,59.89,3.05,4.07,6.18,5.29,11.21,3.97-.71-1.03-1.21-1.83-1.79-2.58-15.47-20.42-31.07-40.73-46.3-61.33-3.2-4.33-6.52-6.17-12.31-4.63Z"/></g></svg>