<svg xmlns="http://www.w3.org/2000/svg" width="14" height="14" viewBox="0 0 20 20">
  <path id="Path_341797" data-name="Path 341797" d="M11.16,8.693a9.578,9.578,0,0,0,3.86-.787,10.246,10.246,0,0,0,3.191-2.167,10.19,10.19,0,0,0,2.162-3.186,9.621,9.621,0,0,0,.782-3.865,9.578,9.578,0,0,0-.787-3.86,10.309,10.309,0,0,0-2.167-3.2,10.059,10.059,0,0,0-3.191-2.162,9.687,9.687,0,0,0-3.86-.777,9.65,9.65,0,0,0-3.855.777A10.136,10.136,0,0,0,4.1-8.368a10.192,10.192,0,0,0-2.167,3.2,9.632,9.632,0,0,0-.782,3.86,9.567,9.567,0,0,0,.787,3.865A10.263,10.263,0,0,0,4.109,5.739,10.263,10.263,0,0,0,7.3,7.906,9.567,9.567,0,0,0,11.16,8.693Zm0-1.832A8.012,8.012,0,0,1,7.98,6.228a8.2,8.2,0,0,1-2.6-1.755,8.132,8.132,0,0,1-1.75-2.6A8.069,8.069,0,0,1,3-1.312a8.069,8.069,0,0,1,.628-3.181,8.132,8.132,0,0,1,1.75-2.6,8.147,8.147,0,0,1,2.6-1.75,8.032,8.032,0,0,1,3.175-.628,8.107,8.107,0,0,1,3.186.628A8.116,8.116,0,0,1,16.945-7.1a8.132,8.132,0,0,1,1.75,2.6,8.069,8.069,0,0,1,.628,3.181A8.069,8.069,0,0,1,18.7,1.869a8.132,8.132,0,0,1-1.75,2.6,8.2,8.2,0,0,1-2.6,1.755A8.012,8.012,0,0,1,11.16,6.861Zm5-8.194a.91.91,0,0,0-.3-.628L12.571-5.244a.773.773,0,0,0-.556-.206.71.71,0,0,0-.53.216.724.724,0,0,0-.211.525.751.751,0,0,0,.237.566l1.2,1.173,1.132.926-2.028-.093H6.909a.755.755,0,0,0-.571.232.8.8,0,0,0-.221.571.791.791,0,0,0,.221.576.764.764,0,0,0,.571.226h4.91l2.028-.082L12.715.325l-1.2,1.163a.719.719,0,0,0-.237.556.754.754,0,0,0,.211.54.7.7,0,0,0,.53.221.756.756,0,0,0,.556-.226L15.864-.694A.9.9,0,0,0,16.163-1.332Z" transform="translate(-1.155 11.307)" fill="#fff"/>
</svg>